<svg xmlns="http://www.w3.org/2000/svg" viewBox="0 0 3000 3000">
    <defs>
        <style>
            .cls-1{fill:#000;stroke-width:0}.cls-5,.cls-7{fill:none;stroke:#000;stroke-miterlimit:10}.cls-5{stroke-width:17px}.cls-7{stroke-width:12px}</style>
    </defs>
    <path id="_Шар_2"
        d="M486 2021a1254 1254 0 0 1 843 0l-11-14c4 32 16 62 41 83 20 17 44 28 70 33 50 10 109 2 149-33 25-21 36-52 39-84l-11 14a1369 1369 0 0 1 859-1c18 6 26-23 8-29a1403 1403 0 0 0-875 1c-7 2-11 8-11 15-2 22-10 43-26 59-14 14-33 22-52 27-40 10-87 5-121-18a92 92 0 0 1-40-67c-1-7-4-12-11-14a1291 1291 0 0 0-859-1c-19 7-11 36 8 29Z"
        class="cls-1" data-name="Шар 2" />
    <path id="_Шар_10" fill="none" stroke="#000" stroke-miterlimit="10" stroke-width="14"
        d="M534 1692c7 81 7 149-42 240 87-34 218-75 393-74 241 3 422 86 512 136a294 294 0 0 0 143 4 1015 1015 0 0 1 926-58 421 421 0 0 1-45-233c-107-21-212-37-389-17-254 29-438 197-551 262-120-68-328-237-590-266-163-17-251-12-357 5Z"
        data-name="Шар 10" />
    <path id="_Шар_12" fill="none" stroke="#000" stroke-miterlimit="10" stroke-width="11"
        d="M526 1813c62-14 130-24 203-28 337-15 604 121 749 213" data-name="Шар 12" />
    <path id="_Шар_3"
        d="M544 1601c70-25 149-26 223-21a900 900 0 0 1 583 239c44 38 84 80 127 119 3 3 9 3 13 0l113-117a900 900 0 0 1 366-225c72-22 149-29 224-30 73-1 148 3 219 20 11 3 16-14 5-17-64-15-130-20-195-21-77-1-155 4-230 23a1049 1049 0 0 0-227 100c-56 34-109 74-156 119-46 44-87 91-132 135h13l-112-106c-48-43-98-84-151-118-63-41-131-73-202-95-74-24-152-36-230-42-84-7-175-9-256 19-11 4-6 22 5 18Z"
        class="cls-1" data-name="Шар 3" />
    <path id="_Шар_11"
        d="M540 1754c102-20 146-32 293-20 317 26 565 186 656 255 109-71 337-207 651-207 138 0 198 15 286 43"
        class="cls-7" data-name="Шар 11" />
    <path id="_Шар_13" d="M1476 1981c10-31 225-155 433-206 221-56 416-24 511-1" class="cls-7"
        data-name="Шар 13" />
    <path id="_Шар_15" fill="none" stroke="#000" stroke-miterlimit="10" stroke-width="28"
        d="m1482 1922 1 83" data-name="Шар 15" />
    <path id="_Шар_4"
        d="M1065 1014v456c0 6 3 11 8 14l395 234c8 4 17 4 25 0l388-231c3-2 5-5 5-9l-1-464c0-13-7-25-18-32l-383-238c-5-3-11-3-16 0l-384 237c-12 7-19 20-19 33Z"
        class="cls-5" data-name="Шар 4" />
    <path id="_Шар_5" d="m1065 992 205 81h416l201-81" class="cls-5" data-name="Шар 5" />
    <path id="_Шар_6"
        d="m1270 1073 193-308c6-9 20-10 25 0l197 308 195 395c3 7-2 15-9 15l-780-3c-12 0-19-13-14-24l193-383Z"
        class="cls-5" data-name="Шар 6" />
    <path id="_Шар_7" d="m1270 1073 206 410 209-410" class="cls-5" data-name="Шар 7" />
    <path id="_Шар_8" d="m1477 1483 3 241" class="cls-5" data-name="Шар 8" />
</svg>